<?xml version="1.0" encoding="utf-8"?>
<!-- Generator: Adobe Illustrator 16.0.0, SVG Export Plug-In . SVG Version: 6.00 Build 0)  -->
<!DOCTYPE svg PUBLIC "-//W3C//DTD SVG 1.1//EN" "http://www.w3.org/Graphics/SVG/1.1/DTD/svg11.dtd">
<svg version="1.1" id="Слой_1" xmlns="http://www.w3.org/2000/svg" xmlns:xlink="http://www.w3.org/1999/xlink" x="0px" y="0px"
	 width="127.286px" height="38.43px" viewBox="0 0 127.286 38.43" enable-background="new 0 0 127.286 38.43" xml:space="preserve">
<g>
	<path fill="#FFFFFF" d="M-127.473,19.424V-5.524h16.704v4.716h-11.088v5.22h9.864v4.716h-9.864v10.296H-127.473z"/>
	<path fill="#FFFFFF" d="M-90.142,14.6v4.824h-16.668V-5.524h5.616V14.6H-90.142z"/>
	<path fill="#FFFFFF" d="M-86.542-5.524h5.616v24.948h-5.616V-5.524z"/>
	<path fill="#FFFFFF" d="M-60.825,19.424c-0.701-1.39-1.471-2.797-2.307-4.222c-0.834-1.426-1.793-2.631-2.876-3.615
		c-0.336,0.371-0.76,0.887-1.275,1.547s-1.031,1.362-1.545,2.105c-0.516,0.742-0.998,1.512-1.447,2.309s-0.783,1.423-1.002,1.876
		h-6.408c1.05-1.948,2.289-3.959,3.718-6.034c1.429-2.074,3.022-4.276,4.782-6.607l-8.14-12.307h6.804l4.754,7.225l4.857-7.225
		h6.408l-8.096,12.041c2.123,2.66,3.871,5.099,5.244,7.315c1.371,2.217,2.455,4.081,3.248,5.592H-60.825z"/>
</g>
<g>
	<g>
		
			<linearGradient id="SVGID_1_" gradientUnits="userSpaceOnUse" x1="380.6226" y1="-368.4873" x2="420.512" y2="-368.4873" gradientTransform="matrix(1 0 0 -1 -298 -348.5703)">
			<stop  offset="0" style="stop-color:#FF55A5"/>
			<stop  offset="0.5934" style="stop-color:#FF5779"/>
			<stop  offset="1" style="stop-color:#FF5860"/>
		</linearGradient>
		<path fill="url(#SVGID_1_)" d="M93.167,13.47c-2.081,0-3.587,0.578-4.513,1.733c-0.928,1.157-1.391,2.736-1.391,4.743
			c0,0.974,0.115,1.858,0.345,2.65c0.229,0.794,0.573,1.477,1.031,2.049c0.459,0.573,1.033,1.018,1.72,1.333
			c0.687,0.314,1.489,0.474,2.406,0.474c0.498,0,0.922-0.01,1.276-0.03c0.354-0.019,0.662-0.058,0.932-0.114v-6.906h4.47v9.829
			c-0.535,0.211-1.395,0.435-2.579,0.674c-1.186,0.238-2.646,0.358-4.385,0.358c-1.491,0-2.842-0.229-4.055-0.688
			c-1.213-0.458-2.249-1.126-3.108-2.006c-0.86-0.878-1.524-1.958-1.992-3.237c-0.468-1.28-0.702-2.742-0.702-4.385
			c0-1.662,0.258-3.132,0.774-4.413c0.516-1.279,1.222-2.364,2.12-3.252c0.896-0.888,1.952-1.562,3.167-2.021
			c1.212-0.458,2.507-0.688,3.882-0.688c0.936,0,1.781,0.062,2.536,0.187c0.755,0.124,1.404,0.268,1.949,0.43
			c0.544,0.162,0.993,0.329,1.346,0.501c0.354,0.172,0.606,0.306,0.761,0.401l-1.29,3.583c-0.611-0.325-1.314-0.606-2.107-0.846
			C94.967,13.589,94.104,13.47,93.167,13.47z"/>
		
			<linearGradient id="SVGID_2_" gradientUnits="userSpaceOnUse" x1="380.6226" y1="-368.5015" x2="420.5091" y2="-368.5015" gradientTransform="matrix(1 0 0 -1 -298 -348.5703)">
			<stop  offset="0" style="stop-color:#FF55A5"/>
			<stop  offset="0.5934" style="stop-color:#FF5779"/>
			<stop  offset="1" style="stop-color:#FF5860"/>
		</linearGradient>
		<path fill="url(#SVGID_2_)" d="M122.509,19.945c0,1.7-0.253,3.195-0.759,4.484c-0.506,1.29-1.198,2.369-2.077,3.238
			c-0.88,0.87-1.924,1.523-3.139,1.962c-1.212,0.439-2.516,0.66-3.911,0.66c-1.355,0-2.635-0.221-3.838-0.66
			c-1.205-0.438-2.256-1.092-3.152-1.962c-0.899-0.869-1.605-1.948-2.122-3.238c-0.515-1.289-0.773-2.784-0.773-4.484
			s0.268-3.195,0.802-4.485c0.536-1.29,1.257-2.373,2.164-3.252c0.908-0.878,1.958-1.538,3.153-1.977
			c1.192-0.439,2.45-0.659,3.767-0.659c1.357,0,2.637,0.22,3.84,0.659c1.204,0.439,2.255,1.099,3.152,1.977
			c0.897,0.879,1.605,1.962,2.122,3.252C122.253,16.75,122.509,18.245,122.509,19.945z M107.352,19.945
			c0,0.974,0.119,1.854,0.357,2.636c0.24,0.784,0.583,1.458,1.032,2.021c0.448,0.563,0.999,0.998,1.648,1.303
			c0.648,0.307,1.394,0.458,2.233,0.458c0.822,0,1.563-0.151,2.222-0.458c0.659-0.305,1.213-0.739,1.662-1.303
			s0.792-1.237,1.031-2.021c0.239-0.782,0.358-1.662,0.358-2.636c0-0.974-0.119-1.857-0.358-2.65
			c-0.239-0.792-0.582-1.471-1.031-2.035s-1.003-0.998-1.662-1.304c-0.659-0.305-1.399-0.458-2.222-0.458
			c-0.84,0-1.585,0.157-2.233,0.473c-0.649,0.315-1.2,0.755-1.648,1.318c-0.449,0.563-0.792,1.242-1.032,2.034
			C107.471,18.116,107.352,18.99,107.352,19.945z"/>
	</g>
</g>
<text transform="matrix(1 0 0 1 7.3677 28.7705)" fill="#FFFFFF" font-family="'MicrosoftYaHei'" font-size="26.7797">CIMA</text>
</svg>
